Coordinates
version=1
nRows=14
nColumns=36
inDegrees=yes

Units are S.I. units (second, meters, Newtons, ...)
If the header above contains a line with 'inDegrees', this indicates whether rotational values are in degrees (yes) or radians (no).

endheader
time	pelvis_tilt	pelvis_list	pelvis_rotation	pelvis_tx	pelvis_ty	pelvis_tz	hip_flexion_r	hip_adduction_r	hip_rotation_r	knee_angle_r	knee_angle_r_beta	ankle_angle_r	subtalar_angle_r	mtp_angle_r	hip_flexion_l	hip_adduction_l	hip_rotation_l	knee_angle_l	knee_angle_l_beta	ankle_angle_l	subtalar_angle_l	mtp_angle_l	lumbar_extension	lumbar_bending	lumbar_rotation	arm_flex_r	arm_add_r	arm_rot_r	elbow_flex_r	pro_sup_r	arm_flex_l	arm_add_l	arm_rot_l	elbow_flex_l	pro_sup_l
      1.41666670	      3.15733573	      2.59898726	      5.64854187	      0.02839289	      1.30492884	      0.09444801	     -4.54039033	     -6.93542878	      8.74647673	      2.77288945	      0.04839605	      1.59673590	    -13.37454814	     -7.49999987	     -5.06878594	      1.69540233	      4.03608663	      6.98897452	      0.12198062	      7.87755314	    -12.94135740	     -7.49999987	    -11.33407491	     -2.89753910	      3.70842451	      5.87124233	     -4.70884141	     17.26456579	     32.42481588	     75.54412367	      7.43932849	     -3.24726881	      8.10142225	     27.80685709	     80.26759077
      1.43333330	      3.06824315	      2.64067886	      5.72050238	      0.02806018	      1.30442128	      0.09421678	     -4.43453077	     -6.97446008	      8.75725069	      2.84597149	      0.04967157	      1.59545804	    -13.56897678	     -7.49999987	     -4.81714515	      1.73770938	      4.07981323	      7.27573138	      0.12698547	      7.97407925	    -12.88296238	     -7.49999987	    -11.18856354	     -2.95611644	      3.95262775	      5.43702772	     -4.70136367	     15.95545735	     32.28168408	     80.29162706	      7.61161328	     -3.32007088	      8.83728370	     26.89638092	     85.69110846
      1.45000000	      2.99506332	      2.67452749	      5.73878664	      0.02862589	      1.30472197	      0.09437342	     -4.36217638	     -7.00060316	      8.86582896	      2.84340680	      0.04962681	      1.69538742	    -13.61873791	     -7.49999987	     -4.62044483	      1.75798889	      4.08468050	      7.58157009	      0.13232336	      8.16515349	    -12.90946509	     -7.49999987	    -11.05168259	     -2.99864466	      3.79070541	      5.25186917	     -4.62048444	     15.96681006	     31.92635013	     79.18826615	      7.35133457	     -3.26770270	      8.26558061	     26.58371539	     84.26267049
      1.46666670	      3.09309197	      2.71110335	      5.86314261	      0.02821035	      1.30464459	      0.09417683	     -4.49253428	     -7.00303331	      8.86881585	      2.80999221	      0.04904362	      1.92839453	    -13.49571247	     -7.49999987	     -4.62252322	      1.74881440	      4.22156729	      7.81806561	      0.13645099	      8.36291364	    -12.78318603	     -7.49999987	    -11.20830013	     -2.99224763	      3.61112911	      5.01626129	     -4.66971988	     15.87519286	     31.93210098	     78.72250998	      7.19103732	     -3.34166222	      8.17399895	     26.59017177	     83.71647389
      1.48333330	      3.18930255	      2.75154376	      5.96517423	      0.02864586	      1.30510984	      0.09425315	     -4.64997717	     -7.03198785	      8.83057488	      2.70825331	      0.04726794	      2.17639880	    -13.11580213	     -7.49999987	     -4.70279600	      1.76173815	      4.25503793	      7.81608396	      0.13641640	      8.60623140	    -12.48340399	     -7.49999987	    -11.32575141	     -3.00973090	      3.45574873	      4.76795639	     -4.67493570	     15.74033832	     32.03250783	     77.42391846	      6.94182617	     -3.41680014	      7.97782172	     26.62970707	     82.11935104
      1.50000000	      3.22439309	      2.78300597	      6.11569055	      0.02805438	      1.30485194	      0.09394033	     -4.74017735	     -7.03709447	      8.86812422	      2.78725796	      0.04864683	      2.25951580	    -13.30193572	     -7.49999987	     -4.60155986	      1.77643187	      4.39874800	      8.00467062	      0.13970786	      8.66120968	    -12.60169331	     -7.49999987	    -11.34363809	     -3.00383238	      3.29310593	      4.69092442	     -4.68191275	     15.73774187	     31.82510019	     77.13012567	      6.93760015	     -3.45662232	      7.98405749	     26.00774002	     81.72639299
      1.51666670	      3.27845561	      2.82599790	      6.09358670	      0.02831160	      1.30561793	      0.09412363	     -4.80929184	     -7.05218669	      9.06018238	      2.94150058	      0.05133887	      2.35844165	    -13.46232518	     -7.49999987	     -4.53808885	      1.81873483	      4.29523237	      8.21531285	      0.14338426	      8.62533794	    -12.59394201	     -7.49999987	    -11.48046879	     -3.04170391	      3.24743460	      4.62988460	     -4.74970181	     15.81787835	     31.81464639	     76.95632468	      6.91367894	     -3.52851445	      8.00682685	     25.66530997	     81.44415226
      1.53333330	      3.25470056	      2.84839760	      6.08900159	      0.02781693	      1.30539357	      0.09389764	     -4.74015454	     -7.05504749	      9.14022317	      3.09596209	      0.05403473	      2.56578037	    -13.48560200	     -7.49999987	     -4.42119016	      1.85733404	      4.20773063	      8.40685571	      0.14672731	      8.55623704	    -12.62706529	     -7.49999987	    -11.57646907	     -3.07868961	      3.29407110	      4.51198198	     -4.72687191	     14.75723213	     31.84349072	     81.89709177	      6.90731090	     -3.48117627	      6.81330004	     25.38889638	     86.86464973
      1.55000000	      3.38277235	      2.86798872	      6.05575688	      0.02793260	      1.30278456	      0.09438294	     -4.88075902	     -7.01820633	      9.24338678	      3.16121073	      0.05517354	      2.87665657	    -13.39395030	     -7.49999987	     -4.47735689	      1.85788847	      4.02736257	      8.64034469	      0.15080246	      8.80428601	    -12.44378865	     -7.49999987	    -11.86510355	     -3.13421050	      3.23591723	      4.44280205	     -4.79533702	     14.78839195	     32.22069398	     80.67451125	      6.79236751	     -3.55993100	      6.65134046	     25.65008548	     85.46780733
      1.56666670	      3.43353344	      2.82776474	      5.94266239	      0.02751127	      1.30567236	      0.09399486	     -4.86274682	     -6.94967747	      9.25839923	      3.31923273	      0.05793154	      3.10710857	    -13.39623825	     -7.49999987	     -4.53792117	      1.82872496	      3.83003723	      8.68272951	      0.15154222	      8.91954037	    -12.35180084	     -7.49999987	    -12.05593684	     -3.10389821	      3.20869463	      4.43428868	     -4.88723404	     14.85984302	     32.38892597	     79.88321423	      6.78663938	     -3.59819057	      6.56145616	     25.69486092	     84.55058862
      1.58333330	      3.48711859	      2.81285542	      5.90807947	      0.02790974	      1.30608237	      0.09426120	     -4.91103670	     -6.88919522	      9.38000638	      3.39939546	      0.05933064	      3.25017532	    -13.60236326	     -7.49999987	     -4.52662469	      1.83162142	      3.82510981	      8.86713789	      0.15476075	      9.05232507	    -12.60319572	     -7.49999987	    -12.18598874	     -3.12749146	      3.22258357	      4.35922608	     -4.95375726	     14.98431149	     32.36372670	     79.59357993	      6.78089592	     -3.70625172	      6.47493646	     25.58471102	     84.19457841
      1.60000000	      3.33712290	      2.76464412	      5.71295019	      0.02744227	      1.30264355	      0.09429798	     -4.56373808	     -6.82623100	      9.62240732	      3.64969620	      0.06369922	      3.55607699	    -13.71647981	     -7.49999987	     -4.39125813	      1.88395732	      3.97185145	      8.85898751	      0.15461850	      8.84994955	    -13.44788538	     -7.49999987	    -12.17992082	     -3.09850625	      3.17050384	      4.40304692	     -5.22459408	     15.62203774	     32.61806374	     78.60928723	      6.58371542	     -3.81310338	      6.44957070	     25.58078462	     82.83798288
      1.61666670	      3.39539355	      2.63462281	      5.64541654	      0.02809767	      1.30324260	      0.09442036	     -4.58179886	     -6.64764635	      9.74501563	      3.72787131	      0.06506363	      4.00681539	    -13.54627097	     -7.49999987	     -4.43699741	      1.75598355	      3.83587444	      8.94449496	      0.15611089	      9.44696737	    -13.00519172	     -7.49999987	    -12.43957523	     -2.93446392	      2.99908707	      4.45783608	     -5.22931119	     15.44682108	     32.59819259	     76.63134036	      6.37705105	     -3.84206409	      6.25238159	     25.74830582	     80.56708300
      1.63333330	      3.20993080	      2.49716528	      5.55333321	      0.02760992	      1.30287336	      0.09410908	     -4.23684086	     -6.48171682	     10.19997276	      3.90547602	      0.06816342	      3.95262505	    -14.22996055	     -7.49999987	     -4.23733048	      1.65740533	      3.74787964	      8.95329015	      0.15626439	      9.67559347	    -13.07273269	     -7.49999987	    -12.43010458	     -2.77962776	      2.99450523	      4.27127208	     -5.31271155	     14.32429113	     32.60393082	     81.95366136	      6.34529435	     -3.86791426	      4.97780892	     25.73092546	     86.94519126
